<svg t="1572696974348" class="icon" viewBox="0 0 1024 1024" version="1.1" xmlns="http://www.w3.org/2000/svg" p-id="1243" width="200" height="200"><path d="M805.89 928.22c-5 0-9.93-1.76-13.95-5.17l-70.52-59.77c-34.26 10.84-70.06 16.34-106.45 16.34-106.45 0-205.06-46.7-270.51-128.13-4.93-6.12-4.02-15.13 2.01-20.12 6.02-5.04 14.92-4.08 19.83 2.04C426.4 808.14 517.04 851 614.97 851c34.64 0 68.68-5.39 101.14-16.03 7.19-2.38 14.93-0.84 20.7 4.07l63.04 53.42 2.05-90.15c0.17-6.76 3.32-13 8.66-17.1 75.54-57.95 118.86-144.48 118.86-237.41 0-149.81-111.16-275.72-264.31-299.38-7.7-1.19-12.99-8.48-11.82-16.29 1.17-7.81 8.33-13.18 16.06-11.99 167.04 25.8 288.28 163.6 288.28 327.66 0 100.97-46.47 194.96-127.6 258.33l-2.29 100.45c-0.21 8.58-5.11 16.11-12.81 19.65a21.736 21.736 0 0 1-9.04 1.99z m-87.17-67.23l0.01 0.01-0.01-0.01z" p-id="1244"></path><path d="M216.42 810.48c-3.06 0-6.14-0.66-9.08-2.01-7.7-3.55-12.6-11.08-12.78-19.66l-2.3-100.41C111.1 624.97 64.67 531.01 64.67 430.05c0-182.97 153.72-331.83 342.66-331.83s342.66 148.86 342.66 331.83-153.72 331.83-342.66 331.83c-36.36 0-72.16-5.49-106.46-16.32l-70.5 59.76c-4.04 3.4-8.95 5.16-13.95 5.16z m190.91-683.63c-173.39 0-314.45 136.01-314.45 303.21 0 92.93 43.32 179.46 118.84 237.41 5.33 4.07 8.5 10.31 8.66 17.1l2.07 90.15 63.04-53.44c0.01 0 0.03-0.01 0.03-0.03 5.77-4.84 13.5-6.36 20.65-4.02 32.51 10.63 66.54 16.03 101.16 16.03 173.39 0 314.45-136.01 314.45-303.21s-141.07-303.2-314.45-303.2zM194.71 690.3c0.01 0.01 0.03 0.01 0.04 0.03-0.01-0.01-0.03-0.01-0.04-0.03z" p-id="1245"></path><path d="M367.38 431.69a36.62 37.15 0 1 0 73.24 0 36.62 37.15 0 1 0-73.24 0Z" fill="#FFFFFF" p-id="1246"></path><path d="M403.99 483.14c-27.96 0-50.72-23.09-50.72-51.45 0-28.37 22.75-51.45 50.72-51.45 27.98 0 50.73 23.09 50.73 51.45 0 28.37-22.75 51.45-50.73 51.45z m0-74.29c-12.41 0-22.51 10.24-22.51 22.83 0 12.59 10.1 22.83 22.51 22.83 12.42 0 22.52-10.24 22.52-22.83 0-12.58-10.09-22.83-22.52-22.83z" p-id="1247"></path><path d="M546.04 431.69a36.62 37.15 0 1 0 73.24 0 36.62 37.15 0 1 0-73.24 0Z" fill="#FFFFFF" p-id="1248"></path><path d="M582.66 483.14c-27.96 0-50.72-23.09-50.72-51.45 0-28.37 22.75-51.45 50.72-51.45 27.98 0 50.73 23.09 50.73 51.45 0 28.37-22.76 51.45-50.73 51.45z m0-74.29c-12.41 0-22.51 10.24-22.51 22.83 0 12.59 10.1 22.83 22.51 22.83 12.42 0 22.52-10.24 22.52-22.83 0-12.58-10.1-22.83-22.52-22.83z" p-id="1249"></path><path d="M187.86 431.69a36.62 37.15 0 1 0 73.24 0 36.62 37.15 0 1 0-73.24 0Z" fill="#FFFFFF" p-id="1250"></path><path d="M224.47 483.14c-27.96 0-50.72-23.09-50.72-51.45 0-28.37 22.75-51.45 50.72-51.45 27.98 0 50.73 23.09 50.73 51.45 0 28.37-22.75 51.45-50.73 51.45z m0-74.29c-12.41 0-22.51 10.24-22.51 22.83 0 12.59 10.1 22.83 22.51 22.83 12.42 0 22.52-10.24 22.52-22.83 0.01-12.58-10.09-22.83-22.52-22.83z" p-id="1251"></path></svg>