<svg t="1572697083317" class="icon" viewBox="0 0 1024 1024" version="1.1" xmlns="http://www.w3.org/2000/svg" p-id="1361" width="200" height="200"><path d="M786.95 408.94H235.04c-9.24 0-16.72-9.31-16.72-20.8s7.48-20.8 16.72-20.8h551.92c9.24 0 16.72 9.31 16.72 20.8s-7.48 20.8-16.73 20.8zM786.95 596.17H235.04c-9.24 0-16.72-9.3-16.72-20.8s7.48-20.8 16.72-20.8h551.92c9.24 0 16.72 9.3 16.72 20.8s-7.48 20.8-16.73 20.8z" p-id="1362"></path><path d="M909.38 98.15H114.62c-27.67 0-50.17 25.96-50.17 57.88v625.1c0 31.92 22.51 57.88 50.17 57.88h315.19l42.53 68.54c9.36 12.91 23.09 20.46 37.66 20.74h0.83c14.29 0 27.9-7.03 38.22-20.44l45.69-68.84h314.65c27.67 0 50.17-25.96 50.17-57.88v-625.1c0-31.92-22.51-57.88-50.18-57.88z m16.73 682.98c0 10.65-7.5 19.29-16.72 19.29h-322.9v0.02c-5.02 0-10 2.58-13.28 7.55l-49.91 75.29c-3.28 4.24-7.61 6.58-12.74 6.42-4.93-0.09-9.39-2.54-11.78-5.77l-46.76-75.46c-3.26-5.24-8.4-8.03-13.61-8.04v-0.02h-323.8c-9.23 0-16.72-8.65-16.72-19.29v-625.1c0-10.64 7.5-19.29 16.72-19.29h794.77c9.23 0 16.72 8.66 16.72 19.29v625.11z" p-id="1363"></path></svg>