<svg t="1572697152811" class="icon" viewBox="0 0 1024 1024" version="1.1" xmlns="http://www.w3.org/2000/svg" p-id="1473" width="200" height="200"><path d="M855.96 854.64H168.04c-9.83 0-18.88-5.36-23.61-13.96a26.9 26.9 0 0 1 0.88-27.43l81.66-128.57v-273.4c0-157.17 127.86-285.03 285.03-285.03s285.03 127.86 285.03 285.03v273.41l81.66 128.57c5.28 8.3 5.61 18.81 0.88 27.43a26.978 26.978 0 0 1-23.61 13.95z m-3.36-24.81h0.15-0.15z m-677.33-6.1h673.45l-80.19-126.26a15.43 15.43 0 0 1-2.41-8.29v-277.9c0-140.11-114-254.12-254.12-254.12s-254.12 114-254.12 254.12v277.91c0 2.93-0.83 5.81-2.41 8.29l-80.2 126.25z" p-id="1474"></path><path d="M522.11 960.22c-66.74 0-121.04-54.29-121.04-121.04 0-8.54 6.91-15.46 15.46-15.46 8.54 0 15.46 6.91 15.46 15.46 0 49.69 40.44 90.12 90.12 90.12s90.12-40.44 90.12-90.12c0-8.54 6.91-15.46 15.46-15.46s15.46 6.91 15.46 15.46c0 66.75-54.29 121.04-121.04 121.04zM488.33 157.67c-3.61 0-7.24-1.25-10.17-3.82a51.384 51.384 0 0 1-17.55-38.69c0-28.35 23.05-51.39 51.39-51.39s51.41 23.05 51.41 51.39c0 14.23-5.99 27.95-16.42 37.66-6.23 5.78-16 5.46-21.84-0.8-5.81-6.25-5.45-16.03 0.8-21.84 4.23-3.92 6.55-9.27 6.55-15.02 0-11.29-9.19-20.48-20.5-20.48-11.29 0-20.48 9.19-20.48 20.48 0 5.92 2.55 11.53 6.99 15.41 6.43 5.61 7.08 15.38 1.46 21.81-3.05 3.5-7.34 5.29-11.64 5.29z" p-id="1475"></path></svg>