<svg t="1572695969491" class="icon" viewBox="0 0 1024 1024" version="1.1" xmlns="http://www.w3.org/2000/svg" p-id="1361" width="200" height="200"><path d="M794.79 803.74c-9.89 0-17.89-8.7-17.89-19.45 0-111.47-57.31-211.59-149.58-261.28-5.59-3.01-9.33-8.98-9.87-15.75-0.54-6.76 2.2-13.34 7.23-17.36 50.5-40.28 80.64-104.72 80.64-172.39 0-117.97-88.3-213.94-196.83-213.94s-196.83 95.97-196.83 213.94c0 67.67 30.14 132.12 80.64 172.39 5.03 4.02 7.78 10.6 7.23 17.36-0.54 6.76-4.28 12.74-9.87 15.75-92.26 49.7-149.58 149.81-149.58 261.28 0 10.75-8 19.45-17.89 19.45s-17.89-8.7-17.89-19.45c0-116.52 55.22-222.09 145.8-281.98-46.9-47.55-74.23-114.7-74.23-184.81 0-139.42 104.35-252.84 232.61-252.84S741.09 178.08 741.09 317.5c0 70.1-27.33 137.26-74.23 184.81 90.59 59.89 145.8 165.45 145.8 281.98 0.02 10.75-7.98 19.45-17.87 19.45z" p-id="1362"></path><path d="M869.87 823.19H368.85c-9.89 0-17.89-8.7-17.89-19.45s8-19.45 17.89-19.45h501.01c9.89 0 17.89 8.7 17.89 19.45s-7.99 19.45-17.88 19.45zM941.44 959.33H82.56c-9.89 0-17.89-8.7-17.89-19.45s8-19.45 17.89-19.45h858.88c9.89 0 17.89 8.7 17.89 19.45s-8 19.45-17.89 19.45z" p-id="1363"></path></svg>