<svg t="1572697557761" class="icon" viewBox="0 0 1024 1024" version="1.1" xmlns="http://www.w3.org/2000/svg" p-id="1926" width="200" height="200"><path d="M263.38 959.56a30.4 30.4 0 0 1-12.37-2.63c-10.49-4.66-17.16-14.52-17.43-25.77l-2.98-125.24C124.9 726.2 64.44 608.27 64.44 481.55c0-230 200.76-417.11 447.55-417.11s447.57 187.11 447.57 417.11-200.78 417.11-447.57 417.11c-47.28 0-93.78-6.84-138.32-20.31l-91.28 74.42c-5.51 4.48-12.2 6.79-19.01 6.79z m248.61-856.65c-225.04 0-408.14 169.85-408.14 378.64 0 116.07 56.22 224.12 154.24 296.46 7.29 5.33 11.62 13.56 11.79 22.54l2.62 110.17 80.02-65.24c7.83-6.41 18.36-8.4 28.17-5.3 42.16 13.28 86.33 20.01 131.3 20.01 225.06 0 408.16-169.85 408.16-378.64s-183.1-378.64-408.16-378.64zM365.14 860.24h0.19-0.19zM234.32 808.7c0.02 0.02 0.04 0.04 0.08 0.06-0.04-0.02-0.06-0.04-0.08-0.06z m-3.85-7.34v0.08-0.08z" p-id="1927"></path><path d="M459.67 641.11c-7.64 0-15.26-2.82-21.05-8.49L288.97 486.51c-7.7-7.51-7.7-19.69 0-27.2 7.7-7.51 20.16-7.51 27.86 0l142.85 139.44 267.64-261.29c7.7-7.51 20.16-7.51 27.86 0 7.7 7.51 7.7 19.69 0 27.2L480.7 632.61c-5.79 5.68-13.41 8.5-21.03 8.5z" p-id="1928"></path></svg>