<svg t="1572697634497" class="icon" viewBox="0 0 1024 1024" version="1.1" xmlns="http://www.w3.org/2000/svg" p-id="2038" width="200" height="200"><path d="M881.9 731.98H142.1c-25.42 0-46.1-19.83-46.1-44.2V204.2c0-24.37 20.68-44.2 46.1-44.2h739.8c25.42 0 46.1 19.83 46.1 44.2v483.59c0 24.36-20.68 44.19-46.1 44.19zM142.1 188.69c-8.91 0-16.17 6.96-16.17 15.51v483.59c0 8.55 7.26 15.51 16.17 15.51h739.8c8.91 0 16.17-6.96 16.17-15.51V204.2c0-8.55-7.26-15.51-16.17-15.51H142.1z" p-id="2039"></path><path d="M645.8 444.24l-198.91-110.1c-1.33-0.74-2.97 0.23-2.97 1.75V556.1c0 1.52 1.64 2.49 2.97 1.75l198.91-110.1c1.38-0.77 1.38-2.75 0-3.51zM127.62 928c-3.92 0-7.83-1.46-10.77-4.38-5.73-5.7-5.57-14.78 0.38-20.28l211.69-196.01c5.93-5.5 15.42-5.34 21.16 0.35 5.73 5.7 5.57 14.78-0.38 20.28L138.01 923.97c-2.89 2.69-6.65 4.03-10.39 4.03zM901.9 928c-3.74 0-7.5-1.34-10.39-4.03L679.82 727.95c-5.95-5.51-6.11-14.58-0.38-20.28 5.76-5.69 15.24-5.85 21.16-0.35l211.69 196.01c5.95 5.51 6.11 14.58 0.38 20.28-2.94 2.92-6.85 4.39-10.77 4.39zM512.01 188.69c-8.27 0-14.96-6.42-14.96-14.34v-64c0-7.92 6.69-14.34 14.96-14.34s14.96 6.42 14.96 14.34v64c0 7.92-6.69 14.34-14.96 14.34z" p-id="2040"></path></svg>