<svg t="1572697353126" class="icon" viewBox="0 0 1024 1024" version="1.1" xmlns="http://www.w3.org/2000/svg" p-id="1697" width="200" height="200"><path d="M512 773.7c-195.59 0-354.71-159.12-354.71-354.71S316.41 64.27 512 64.27s354.71 159.12 354.71 354.71S707.59 773.7 512 773.7z m0-666.94c-172.17 0-312.23 140.07-312.23 312.23 0 172.17 140.06 312.23 312.23 312.23s312.23-140.06 312.23-312.23c0-172.16-140.06-312.23-312.23-312.23z" p-id="1698"></path><path d="M511.99 418.99m-75.63 0a75.63 75.63 0 1 0 151.26 0 75.63 75.63 0 1 0-151.26 0Z" p-id="1699"></path><path d="M687.95 959.73H336.03c-11.74 0-21.24-9.5-21.24-21.24s9.5-21.24 21.24-21.24h351.91c11.74 0 21.24 9.5 21.24 21.24s-9.49 21.24-21.23 21.24z" p-id="1700"></path></svg>