<svg t="1572697221615" class="icon" viewBox="0 0 1024 1024" version="1.1" xmlns="http://www.w3.org/2000/svg" p-id="1585" width="200" height="200"><path d="M445.17 959.56h-0.11c-8.08-0.07-14.58-6.77-14.51-14.97l1.76-217.43c0.16-17.59 8.34-33.5 22.45-43.65 14.11-10.14 31.61-12.7 47.99-7.02l269.11 93.63c6.7 2.34 14 1.54 20.05-2.15 6.07-3.68 10.21-9.88 11.34-16.97l95.17-594.81c1.49-9.21-2.06-18-9.45-23.51-7.41-5.53-16.71-6.29-24.91-2.13l-725.6 369.66c-8.81 4.5-13.72 13.13-13.17 23.12 0.57 10.01 6.44 18.01 15.7 21.45l221.77 82.29c7.6 2.81 11.5 11.34 8.73 19.04-2.78 7.72-11.18 11.63-18.75 8.86l-221.77-82.29c-20.27-7.51-33.63-25.77-34.86-47.64-1.24-21.87 9.97-41.55 29.25-51.37l725.6-369.66c17.95-9.15 39.15-7.34 55.33 4.73 16.2 12.07 24.25 32.08 21.02 52.21l-95.17 594.82c-2.53 15.75-11.71 29.49-25.19 37.68-13.47 8.19-29.69 9.95-44.56 4.77l-269.11-93.63c-7.33-2.57-15.24-1.41-21.59 3.16-6.36 4.57-10.04 11.73-10.11 19.65l-1.76 217.42c-0.1 8.17-6.62 14.74-14.65 14.74z" p-id="1586"></path><path d="M455 718.47c-3.06 0-6.14-0.97-8.78-2.99-6.46-4.93-7.74-14.24-2.88-20.8l430.14-580.29c4.86-6.53 14-7.88 20.48-2.93 6.46 4.93 7.74 14.24 2.88 20.8L466.69 712.55c-2.87 3.87-7.25 5.92-11.69 5.92z" p-id="1587"></path></svg>