<svg t="1572767414957" class="icon" viewBox="0 0 1024 1024" version="1.1" xmlns="http://www.w3.org/2000/svg" p-id="1663" width="200" height="200"><path d="M707.4 800.1H132.5c-29.7 0-53.9-24.2-53.9-53.9V279.1c0-29.7 24.2-53.9 53.9-53.9h574.9c29.7 0 53.9 24.2 53.9 53.9v467.1c0 29.8-24.2 53.9-53.9 53.9z m-574.9-539c-9.9 0-18 8.1-18 18v467.1c0 9.9 8.1 18 18 18h574.9c9.9 0 18-8.1 18-18V279.1c0-9.9-8.1-18-18-18H132.5z" p-id="1664"></path><path d="M905 730c-7.2 0-14.3-2.2-20.3-6.4L733.2 619.2c-4.9-3.4-7.8-8.9-7.8-14.8V420.9c0-5.9 2.9-11.4 7.8-14.8l151.5-104.4c6.1-4.2 13.1-6.4 20.3-6.4 19.8 0 36 16.1 36 36v362.8c0 19.8-16.1 35.9-36 35.9zM761.3 595L905 694l0.1-362.7-143.7 99.1V595zM348 656.4c-21 0-38-17.4-38-38.7v-210c0-21.4 17.1-38.8 38-38.8 6.7 0 13.4 1.9 19.2 5.4l175.5 105c11.7 7 18.8 19.5 18.8 33.4 0 13.9-7 26.4-18.8 33.4L367.2 651c-5.9 3.5-12.5 5.4-19.2 5.4z m0.2-251.3c-1.1 0-2.3 0.7-2.3 2.6v210c0 2.3 1.7 2.8 2.1 2.8 0.1 0 0.3 0 0.8-0.3l175.5-105c1.1-0.6 1.3-1.7 1.3-2.6 0-0.8-0.2-1.9-1.3-2.5l-175.6-105h-0.5z" p-id="1665"></path></svg>